PathFileType	4	(X/Y/Z)	Patient4_TMGait_0pt8_01_left_50.trc.trc
DataRate	CameraRate	NumFrames	NumMarkers	Units	OrigDataRate	OrigDataStartFrame	OrigNumFrames
87.500000000000	87.500000000000	4	33	mm	87.500000000000	71	       141
Frame#	Time	Sacral			L.Shoulder			Chest			R.Shoulder			Neck			R.ASIS			L.ASIS			R.Thigh.Superior			R.Thigh.Lateral			R.Thigh.Inferior			R.Patella			L.Thigh.Superior			L.Thigh.Lateral			L.Thigh.Inferior			L.Patella			L.Shank.Superior			L.Shank.Lateral			L.Shank.Inferior			R.Shank.Superior			R.Shank.Lateral			R.Shank.Inferior			R.Heel			R.Midfoot.Superior			R.Midfoot.Lateral			R.Toe			L.Heel			L.Midfoot.Lateral			L.Midfoot.Superior			L.Toe			L.Elbow			L.Wrist			R.Elbow			R.Wrist			
		X1	Y1	Z1	X2	Y2	Z2	X3	Y3	Z3	X4	Y4	Z4	X5	Y5	Z5	X6	Y6	Z6	X7	Y7	Z7	X8	Y8	Z8	X9	Y9	Z9	X10	Y10	Z10	X11	Y11	Z11	X12	Y12	Z12	X13	Y13	Z13	X14	Y14	Z14	X15	Y15	Z15	X16	Y16	Z16	X17	Y17	Z17	X18	Y18	Z18	X19	Y19	Z19	X20	Y20	Z20	X21	Y21	Z21	X22	Y22	Z22	X23	Y23	Z23	X24	Y24	Z24	X25	Y25	Z25	X26	Y26	Z26	X27	Y27	Z27	X28	Y28	Z28	X29	Y29	Z29	X30	Y30	Z30	X31	Y31	Z31	X32	Y32	Z32	X33	Y33	Z33	

71	56.520000000000	872.887611485971	999.604131671994	457.150532682330	1085.028349646803	1428.571050273814	299.750600234415	1163.586746005419	1353.433587571632	471.242669746199	1059.450652104446	1425.229861457671	634.792705330947	1045.182659887817	1484.962478620872	452.986634549673	1089.912426374291	930.655535986941	592.685978780727	1096.975469603381	954.899678396540	317.015825169869	1165.598765945506	762.058551265348	568.624939689914	1124.966322829953	641.274197186160	644.558195811262	1215.479796459408	603.470907592434	565.983903825162	1251.808912204987	524.314119469879	586.995884987603	1087.722358841772	725.819762972699	342.996415406575	963.951438754677	635.931319214759	282.819350511557	1019.964444157190	540.391395414655	347.473732105101	1003.280060545122	475.956447609099	357.875889988237	969.385407714813	412.162180086014	352.708278379304	867.361804687435	305.646438910476	306.532075740447	908.744134468014	192.837427135718	383.868130496124	1240.207430351305	437.762853761504	598.874504879059	1192.516151725150	321.338477103518	662.070440094900	1270.734887991457	240.084904900487	615.306471931107	1194.749893150031	45.538845903033	584.400241819218	1349.336052326531	132.692754997039	632.687650120180	1275.508232594686	50.048138936733	662.129055315517	1474.567770668640	105.203678391144	664.696956753898	771.664835052562	41.419203528087	435.181705519189	846.323831797761	35.950269669785	356.038416283425	930.399256537543	96.343082873138	381.437483107887	1057.988010913154	42.665451011841	356.600229311178	1170.236107176812	1114.624323048399	134.618196187998	1422.907826389324	1103.194431102570	174.781526379382	882.124710114625	1125.303532579584	723.778771246665	813.630221771254	874.594290190118	738.333463295179	
72	56.531428571429	874.020199004078	997.849293221510	459.280536796584	1084.914835748465	1426.905590211371	301.011887721871	1163.800328455789	1352.380926211577	472.593046898614	1059.599653796262	1424.470763260880	635.936223417845	1045.075411766358	1483.410689255472	454.082029714802	1091.300442239366	928.519110048981	594.333833935881	1097.961155570993	953.797186252268	318.560725466945	1164.789993707848	757.731891881661	569.635987462347	1122.185797961866	637.122018736377	644.496191250556	1212.056218975387	598.816682911679	565.361058312327	1247.589558632661	520.922283962314	585.715319267659	1087.277725372687	724.340681289456	343.828986150517	962.450772980788	635.524691452938	283.741405718476	1017.583217516551	539.327789466273	348.191706695867	1000.151328446074	474.731934617866	358.570532615437	965.334998180561	411.242264516675	353.180523858574	861.697906118281	306.329946545876	306.747618349191	901.283619882471	192.670994786795	383.671819842763	1238.042481235522	434.633956969019	597.546792433223	1192.335860571821	316.534707470266	658.928459866486	1273.319739068146	237.594169922035	612.454232967276	1202.307777979997	41.970288921040	579.899606365299	1354.831121005194	131.694340035360	628.769278244541	1282.507830629243	48.068014188530	658.037957591491	1480.633468358238	106.812469664488	661.724979900025	762.529326349082	42.384589227176	434.653591993539	837.274156860858	36.196840194926	355.752259356844	921.511099669062	96.424070664224	381.103714343895	1048.934458976579	42.158279684383	356.547598544395	1172.028366383259	1114.053640913728	135.602821637646	1424.078742248167	1112.640151456076	177.462280602078	876.916406804186	1129.178552257851	724.799069425672	802.995537357081	880.061500580416	738.924285915697	
73	56.542857142857	875.330835195216	996.158017122519	461.649321618050	1084.764888617034	1425.247136635649	302.355445088651	1164.090538407079	1351.452939005582	474.022013364887	1059.862140728602	1423.831138067009	637.191090866920	1044.985119329994	1481.917892427498	455.286145761137	1092.853604998754	926.514873366261	596.171642522536	1099.084291555547	952.719259938754	320.336982355084	1164.672682238451	754.099518279394	570.807379518337	1120.092093050426	633.385509614576	644.310250130481	1209.659332560881	594.963961165670	564.976228346344	1244.223293999180	517.785938840907	584.515519976419	1087.019149721522	722.890060683055	344.928873750100	961.230364329392	635.127126515196	284.851260211014	1015.480948580572	538.275535275687	349.121921374135	997.300252556831	473.491572166929	359.455924447263	961.540037980248	410.299925354787	353.810802239588	856.251115105067	307.102328273495	307.069278755770	893.954881675814	192.561996281699	383.510664707537	1236.072336286921	431.476328111479	596.104791571083	1191.323498890112	312.237830543673	655.668246470161	1274.045873516692	234.914454096851	609.356729387675	1205.769974663638	39.670402053570	575.514713756356	1357.273869848997	129.824324249699	624.397588409037	1285.581643737511	46.347770541331	653.838288349207	1483.278470598513	105.943756814614	657.950605555377	753.414353130113	43.533516289036	434.094506036131	828.242364263415	36.522283221159	355.436890037882	912.679614017161	96.549187096919	380.735369477897	1039.901068971125	41.623502860709	356.477177284734	1173.289630543421	1113.218140113444	136.791146533351	1424.422147567795	1120.754610060348	180.192924772073	872.752435265683	1132.652493938128	725.994628603039	794.192487380913	884.959129351652	739.765364012444	
74	56.554285714286	876.791961481935	994.595114498463	464.223817443147	1084.624459618028	1423.639949733009	303.793260453686	1164.483725897370	1350.660500265248	475.538952127751	1060.259716836241	1423.303287148827	638.576825095617	1044.950413958921	1480.524842914348	456.610195141308	1094.558875730600	924.693043466023	598.177866806898	1100.303517924833	951.700486136620	322.325196907704	1165.295456853329	751.236551978344	572.128275809987	1118.747044507633	630.157618475096	644.053877467971	1208.342733320775	591.980717843828	564.862128727098	1241.802564125274	514.983788384314	583.401922567764	1086.917391201150	721.508644265621	346.247095785095	960.259831014911	634.751001648115	286.143391630906	1013.676082292190	537.251466057171	350.234161514872	994.766609069698	472.226004802266	360.490941829220	958.012747577551	409.345120919342	354.578616195767	851.014601000722	307.987052596188	307.513144185431	886.765651941489	192.528110337141	383.387297804728	1234.444127435514	428.386381645393	594.628250191903	1189.783608088176	308.513179493791	652.577708723848	1273.218138086313	232.068239440050	606.225082756199	1205.479161312489	38.428056542088	571.596265365893	1357.043675579957	127.090542626058	619.866022453595	1285.154533884483	44.773666972478	649.857286393813	1482.973365539983	102.693872668911	653.598967389479	744.326339591124	44.887228451361	433.520518888741	819.229167032002	36.935262289547	355.102072850585	903.924995246764	96.716217236551	380.329264419743	1030.889900860487	41.082928321159	356.391294006265	1173.971235920400	1112.110346883907	138.193493684247	1424.025512898603	1127.478940588721	182.956534684176	869.686723079496	1135.582453339465	727.374697832850	787.231806839202	889.134511874523	740.903205924262	
